<?xml version="1.0" encoding="utf-8"?><!-- Generator: Adobe Illustrator 27.8.1, SVG Export Plug-In . SVG Version: 6.00 Build 0)  --><svg xmlns="http://www.w3.org/2000/svg" xmlns:xlink="http://www.w3.org/1999/xlink" version="1.1" x="0px" y="0px" viewBox="17 11.6 30 40.8" enable-background="new 0 0 64 64" xml:space="preserve">
<g id="lightbulb-outline-top_x5F_s1g1_x5F_s2g2_x5F_s3g1_x5F_s4g1_x5F_background_00000016056810532907668210000000646806346144407197_">
	
		<path fill="#FFFFFF" stroke="#536DFE" stroke-width="1.58" stroke-linecap="round" stroke-linejoin="round" stroke-miterlimit="10" d="   M40.927,31.018c0,1.47-0.36,2.86-0.99,4.09l-0.54,0.91l-0.03,0.04l-1.93,3.23c-1,1.73-1.45,3.938-1.45,5.938l-8.02,0   c0-1.96-0.58-3.917-1.54-5.637l-2.11-3.93l-0.08-0.15c-0.77-1.32-1.21-2.85-1.21-4.49c0-4.94,4.01-8.95,8.95-8.95   C36.917,22.068,40.927,26.078,40.927,31.018z"/>
</g>
<g id="lightbulb-outline-bot_x5F_s1g1_x5F_s2g1_x5F_s3g1_x5F_s4g1_x5F_background">
	<g id="Layer_5">
	</g>
	
		<path fill="#FFFFFF" stroke="#000000" stroke-width="1.58" stroke-linecap="round" stroke-linejoin="round" stroke-miterlimit="10" d="   M34.811,48.595h-5.669c-0.649,0-1.176-0.526-1.176-1.176v-2.194h8.02v2.194C35.987,48.069,35.46,48.595,34.811,48.595z"/>
	
		<path fill="#FFFFFF" stroke="#000000" stroke-width="1.58" stroke-linecap="round" stroke-linejoin="round" stroke-miterlimit="10" d="   M35.038,48.595c0,1.691-1.371,3.061-3.061,3.061c-1.691,0-3.061-1.371-3.061-3.061H35.038z"/>
</g>
<g id="lightbulb-outline-top_x5F_s1g1_x5F_s2g1_x5F_s3g1_x5F_s4g2">
	<g>
		
			<line fill="none" stroke="#000000" stroke-width="1.58" stroke-linecap="round" stroke-linejoin="round" stroke-miterlimit="10" x1="32" y1="12.343" x2="32" y2="16.817"/>
		
			<line fill="none" stroke="#000000" stroke-width="1.58" stroke-linecap="round" stroke-linejoin="round" stroke-miterlimit="10" x1="46.236" y1="18.153" x2="43.073" y2="21.317"/>
		
			<line fill="none" stroke="#000000" stroke-width="1.58" stroke-linecap="round" stroke-linejoin="round" stroke-miterlimit="10" x1="17.764" y1="18.153" x2="20.927" y2="21.317"/>
	</g>
</g>
</svg>