<svg width="31" height="34" viewBox="0 0 31 34" fill="none" xmlns="http://www.w3.org/2000/svg">
<path d="M15.5 0C24.0591 0 31 7.6126 31 17C31 26.3874 24.0591 34 15.5 34C6.9409 34 0 26.3874 0 17C0 7.6126 6.9409 0 15.5 0ZM12.4201 22.6644C12.6464 23.5773 12.6216 24.4307 12.3876 25.2025L12.3039 25.4575C12.1081 25.9715 11.8316 26.4439 11.4871 26.8532C10.585 27.9293 9.32635 28.3356 8.78695 27.9939C8.2057 27.6216 8.49555 26.1035 9.5418 24.8914C10.6671 23.5909 12.2791 22.7528 12.2791 22.7528V22.7494L12.4201 22.6644ZM25.22 7.2777C24.5194 4.2568 19.9547 3.2623 15.6333 4.947C13.0665 5.9483 10.2811 7.5225 8.28165 9.5761C5.90085 12.0139 5.52265 14.1389 5.67765 15.0263C6.2279 18.1594 10.1432 20.2079 11.7536 21.7277V21.7362C11.2778 21.9895 7.80425 23.902 6.99205 25.8808C6.1194 27.9633 7.12845 29.4525 7.7872 29.6412C9.82235 30.2583 11.9133 29.1312 13.0386 27.3054C14.122 25.5187 14.0275 23.2254 13.5609 22.0983C14.2011 21.9079 14.9544 21.8229 15.9231 21.9521C18.6372 22.2904 19.1797 24.1621 19.0603 24.9271C18.9456 25.6904 18.3845 26.1358 18.1908 26.2633C17.9955 26.3925 17.9381 26.435 17.9567 26.52C17.9769 26.6458 18.0745 26.6458 18.228 26.6271C18.4419 26.5846 19.6447 25.9896 19.7021 24.5412C19.7594 22.7154 18.1706 20.6771 15.3419 20.7162C14.1794 20.74 13.4416 20.8454 12.9192 21.08C12.884 21.0201 12.8375 20.9691 12.7828 20.9304C11.0391 18.8683 7.8027 17.4233 7.9391 14.6829C7.97785 13.6833 8.30645 11.05 14.1391 7.8625C18.9255 5.2479 22.7432 5.9721 23.4035 7.565C24.349 9.8362 21.3667 14.0675 16.3881 14.6829C14.4894 14.9175 13.502 14.11 13.2478 13.8108C12.9781 13.4912 12.9409 13.4708 12.8433 13.5371C12.6867 13.6221 12.7844 13.8975 12.8433 14.0692C12.9983 14.4925 13.5982 15.2388 14.646 15.6196C15.5558 15.9392 17.7832 16.1279 20.4584 14.9821C23.4608 13.7088 25.8044 10.1575 25.127 7.1825L25.22 7.2777Z" fill="#E787F7" fill-opacity="0.85"/>
</svg>
