<?xml version="1.0" encoding="utf-8"?><!-- Generator: Adobe Illustrator 27.8.1, SVG Export Plug-In . SVG Version: 6.00 Build 0)  --><svg xmlns="http://www.w3.org/2000/svg" xmlns:xlink="http://www.w3.org/1999/xlink" version="1.1" x="0px" y="0px" viewBox="14.2 13.6 35.599999999999994 36.8" enable-background="new 0 0 64 64" xml:space="preserve">
<g id="contact-outline-bot_x5F_s1g1_x5F_s2g2_x5F_s3g1_x5F_s4g1_x5F_background">
	
		<path fill="#FFFFFF" stroke="#536DFE" stroke-width="1.72" stroke-linecap="round" stroke-linejoin="round" stroke-miterlimit="10" d="   M44.04,46.699H26.11c-2.728,0-4.939-2.211-4.939-4.939V22.235c0-2.728,2.211-4.939,4.939-4.939h17.93   c2.728,0,4.939,2.211,4.939,4.939V41.76C48.979,44.488,46.768,46.699,44.04,46.699z"/>
</g>
<g id="contact-outline-bot_x5F_s1g1_x5F_s2g2_x5F_s3g1_x5F_s4g1">
	<g>
		
			<line fill="none" stroke="#536DFE" stroke-width="1.72" stroke-linecap="round" stroke-linejoin="round" stroke-miterlimit="10" x1="33.912" y1="26.08" x2="42.703" y2="26.08"/>
		
			<line fill="none" stroke="#536DFE" stroke-width="1.72" stroke-linecap="round" stroke-linejoin="round" stroke-miterlimit="10" x1="33.912" y1="31.971" x2="42.703" y2="31.971"/>
		
			<line fill="none" stroke="#536DFE" stroke-width="1.72" stroke-linecap="round" stroke-linejoin="round" stroke-miterlimit="10" x1="33.912" y1="37.861" x2="42.703" y2="37.861"/>
	</g>
</g>
<g id="contact-outline-top_x5F_s1g1_x5F_s2g1_x5F_s3g1_x5F_s4g1_x5F_background">
	<g id="home-outline-first_x5F_s1g1_x5F_s2g1_x5F_s3g1_x5F_s4g1_1_">
	</g>
	
		<path fill="#FFFFFF" stroke="#000000" stroke-width="1.72" stroke-linecap="round" stroke-linejoin="round" stroke-miterlimit="10" d="   M23.857,30.304v3.392c0,1.005,0.716,1.832,1.691,2.073c3.07,0.758,5.344,3.533,5.344,6.83v0.008c0,1.94-0.787,3.698-2.06,4.972   c-2.237,2.239-5.728,2.465-8.516,0.968c-3.148-1.689-5.295-5.067-5.295-8.953V24.414c0-3.892,2.148-7.271,5.295-8.961   c2.788-1.497,6.279-1.271,8.516,0.968c1.273,1.274,2.06,3.033,2.06,4.972v0.008c0,3.297-2.274,6.072-5.344,6.83   C24.573,28.472,23.857,29.299,23.857,30.304z"/>
</g>
</svg>