<svg width="30" height="32" viewBox="0 0 30 32" fill="none" xmlns="http://www.w3.org/2000/svg">
<path d="M29.4334 14.5728L16.3354 0.602321C15.9722 0.216567 15.4805 0 14.968 0C14.4555 0 13.9638 0.216567 13.6006 0.602321L10.8868 3.50077L14.3357 7.18184C14.7426 7.03515 15.1799 7.01306 15.598 7.11805C16.0161 7.22305 16.3982 7.45094 16.7011 7.77588C17.0039 8.10082 17.2154 8.50979 17.3114 8.95643C17.4075 9.40306 17.3843 9.86947 17.2445 10.3028L20.5659 13.851C21.0576 13.6669 21.5935 13.6668 22.0853 13.8508C22.577 14.0347 22.9955 14.3917 23.2719 14.8631C23.5482 15.3345 23.666 15.8921 23.6058 16.4444C23.5456 16.9967 23.311 17.5106 22.9407 17.9018C22.0421 18.8621 20.5914 18.8621 19.6913 17.9018C19.3716 17.5603 19.1532 17.126 19.0633 16.653C18.9733 16.1799 19.0159 15.6892 19.1857 15.2418L16.0744 11.94V20.6418C16.2934 20.7554 16.5034 20.9122 16.6849 21.1059C17.1139 21.5667 17.3546 22.1898 17.3546 22.8392C17.3546 23.4886 17.1139 24.1117 16.6849 24.5725C16.4709 24.8012 16.2167 24.9827 15.9369 25.1064C15.6571 25.2302 15.3572 25.294 15.0543 25.294C14.7513 25.294 14.4514 25.2302 14.1716 25.1064C13.8918 24.9827 13.6376 24.8012 13.4236 24.5725C13.21 24.3453 13.0406 24.0754 12.925 23.7783C12.8094 23.4811 12.7499 23.1625 12.7499 22.8408C12.7499 22.5191 12.8094 22.2005 12.925 21.9033C13.0406 21.6062 13.21 21.3363 13.4236 21.1091C13.6516 20.869 13.9066 20.6866 14.1797 20.5665V11.78C13.8992 11.6575 13.6442 11.4769 13.4295 11.2486C13.2149 11.0203 13.0447 10.749 12.9289 10.4501C12.8131 10.1513 12.754 9.83094 12.755 9.50759C12.7559 9.18423 12.817 8.86429 12.9345 8.56625L9.54412 4.93158L0.562566 14.5056C-0.187522 15.3122 -0.187522 16.6182 0.562566 17.4248L13.6606 31.3953C13.8398 31.587 14.0527 31.7391 14.2871 31.8428C14.5215 31.9466 14.7727 32 15.0265 32C15.2803 32 15.5315 31.9466 15.7659 31.8428C16.0003 31.7391 16.2132 31.587 16.3924 31.3953L29.4289 17.4889C29.6095 17.2982 29.7529 17.0713 29.8509 16.8212C29.9489 16.5711 29.9996 16.3029 30 16.0318C30.0004 15.7608 29.9506 15.4923 29.8533 15.2419C29.7561 14.9915 29.6134 14.7641 29.4334 14.5728Z" fill="#EF410A"/>
</svg>
