<svg width="18" height="18" viewBox="0 0 18 18" fill="none" xmlns="http://www.w3.org/2000/svg">
<path d="M17 0H1C0.734784 0 0.48043 0.10527 0.292893 0.292652C0.105357 0.480035 0 0.734179 0 0.999178V16.986C0 17.251 0.105357 17.5052 0.292893 17.6926C0.48043 17.8799 0.734784 17.9852 1 17.9852H17C17.2652 17.9852 17.5196 17.8799 17.7071 17.6926C17.8946 17.5052 18 17.251 18 16.986V0.999178C18 0.734179 17.8946 0.480035 17.7071 0.292652C17.5196 0.10527 17.2652 0 17 0ZM5.339 15.3244H2.667V6.74145H5.339V15.3244ZM4.003 5.56942C3.59244 5.56942 3.1987 5.40646 2.9084 5.11639C2.61809 4.82632 2.455 4.43291 2.455 4.02269C2.455 3.61247 2.61809 3.21906 2.9084 2.92899C3.1987 2.63892 3.59244 2.47596 4.003 2.47596C4.41356 2.47596 4.80729 2.63892 5.0976 2.92899C5.38791 3.21906 5.551 3.61247 5.551 4.02269C5.551 4.43291 5.38791 4.82632 5.0976 5.11639C4.80729 5.40646 4.41356 5.56942 4.003 5.56942ZM15.338 15.3244H12.669V11.1508C12.669 10.1556 12.651 8.8757 11.281 8.8757C9.891 8.8757 9.68 9.9608 9.68 11.0809V15.3254H7.013V6.74245H9.573V7.91549H9.61C9.965 7.24104 10.837 6.52963 12.134 6.52963C14.838 6.52963 15.337 8.30617 15.337 10.6183L15.338 15.3244Z" fill="#69AAF5"/>
</svg>
