<?xml version="1.0" encoding="utf-8"?><!-- Generator: Adobe Illustrator 27.8.1, SVG Export Plug-In . SVG Version: 6.00 Build 0)  --><svg xmlns="http://www.w3.org/2000/svg" xmlns:xlink="http://www.w3.org/1999/xlink" version="1.1" x="0px" y="0px" viewBox="17.5 10.5 29 43" enable-background="new 0 0 64 64" xml:space="preserve">
<g id="phone-outline-top_x5F_s1g1_x5F_s2g1_x5F_s3g1_x5F_s4g1_x5F_background">
	<g id="home-outline-first_x5F_s1g1_x5F_s2g1_x5F_s3g1_x5F_s4g1_1_">
	</g>
	
		<path fill="#FFFFFF" stroke="#000000" stroke-width="1" stroke-linecap="round" stroke-linejoin="round" stroke-miterlimit="10" d="   M35.75,53h-7.5C22.5891,53,18,48.4109,18,42.75v-21.5C18,15.5891,22.5891,11,28.25,11h7.5C41.4109,11,46,15.5891,46,21.25v21.5   C46,48.4109,41.4109,53,35.75,53z"/>
</g>
<g id="phone-outline-top_x5F_s1g1_x5F_s2g2_x5F_s3g1_x5F_s4g1_x5F_background">
	
		<path fill="#FFFFFF" stroke="#536DFE" stroke-width="1" stroke-linecap="round" stroke-linejoin="round" stroke-miterlimit="10" d="   M38.17,12.7527v1.1598c0,2.2368-1.8132,4.05-4.05,4.05h-4.24c-2.2368,0-4.05-1.8132-4.05-4.05v-1.1598   c0-0.9114,0.7388-1.6502,1.6502-1.6502h9.0395C37.4312,11.1025,38.17,11.8413,38.17,12.7527z"/>
	
		<line fill="none" stroke="#536DFE" stroke-width="1" stroke-linecap="round" stroke-linejoin="round" stroke-miterlimit="10" x1="28.5" y1="46" x2="35.5" y2="46"/>
</g>
</svg>