<svg width="37" height="33" viewBox="0 0 37 33" fill="none" xmlns="http://www.w3.org/2000/svg">
<g clip-path="url(#clip0_512_326)">
<path d="M18.5 19.963C20.4087 19.963 21.956 18.4126 21.956 16.5C21.956 14.5875 20.4087 13.037 18.5 13.037C16.5913 13.037 15.0439 14.5875 15.0439 16.5C15.0439 18.4126 16.5913 19.963 18.5 19.963Z" fill="#03BAF3"/>
<path d="M9.2634 22.8148L8.53334 22.6353C3.11059 21.3183 0 19.0789 0 16.5C0 13.9193 3.11244 11.6817 8.53334 10.3647L9.2634 10.187L9.46855 10.8819C10.0166 12.7013 10.7189 14.4745 11.5682 16.1836L11.7253 16.5L11.5682 16.8164C10.718 18.5279 10.0138 20.3017 9.46855 22.1217L9.2634 22.8148ZM8.19696 11.9821C4.07723 13.0982 1.54698 14.8009 1.54698 16.5C1.54698 18.1956 4.07538 19.9 8.19696 21.0144C8.70153 19.4717 9.31145 17.9627 10.0175 16.5C9.30634 15.0348 8.69814 13.5255 8.19696 11.9821ZM27.7366 22.8148L27.5333 22.1181C26.9838 20.2983 26.281 18.5246 25.4318 16.8146L25.2747 16.5L25.4318 16.1819C26.282 14.4739 26.9825 12.6983 27.5333 10.8783L27.7366 10.1852L28.4667 10.3629C33.8913 11.6799 37 13.9176 37 16.5C37 19.0807 33.8894 21.3183 28.4667 22.6353L27.7366 22.8148ZM26.9788 16.5C27.7181 18.0392 28.3336 19.5534 28.803 21.0144C32.9246 19.9 35.4549 18.1956 35.4549 16.5C35.4549 14.8009 32.9265 13.1 28.803 11.9821C28.299 13.525 27.6896 15.0342 26.9788 16.5Z" fill="#03BAF3"/>
<path d="M8.42549 11.7763L8.21886 11.0538C6.66726 5.66596 7.13687 1.80668 9.50935 0.461579C11.8292 -0.863138 15.5617 0.702436 19.4708 4.65806L20.0042 5.19906L19.4708 5.73821C18.0824 7.1624 16.8134 8.69533 15.6763 10.3219L15.464 10.6221L15.0959 10.6517C13.0964 10.8066 11.1131 11.122 9.16559 11.5948L8.42549 11.7763ZM11.3972 1.53247C10.9764 1.53247 10.6045 1.62325 10.2908 1.80112C8.73543 2.68488 8.46118 5.7623 9.53189 9.91617C11.2056 9.55117 12.8943 9.28994 14.5962 9.14357C15.5815 7.76522 16.6563 6.45134 17.814 5.21018C15.3664 2.86274 13.0559 1.53247 11.3972 1.53247ZM26.4191 32.9996C24.1876 32.9996 21.321 31.3395 18.3456 28.327L17.814 27.7878L18.3456 27.2505C19.7342 25.824 21.0038 24.2893 22.1419 22.6612L22.3523 22.3648L22.7167 22.3296C24.7169 22.1775 26.7009 21.8633 28.6489 21.3903L29.3909 21.205L29.5994 21.9294C31.1434 27.3135 30.6757 31.1783 28.307 32.5234C27.7319 32.845 27.0802 33.0093 26.4191 32.9996ZM20.0042 27.7748C22.45 30.1223 24.7624 31.4544 26.4191 31.4544C26.8418 31.4544 27.2137 31.3618 27.5256 31.1857C29.0828 30.3001 29.3589 27.2172 28.2844 23.0633C26.6126 23.4301 24.922 23.6932 23.2164 23.8396C22.2353 25.2201 21.1622 26.5348 20.0042 27.7748Z" fill="#03BAF3"/>
<path d="M29.388 11.7757L28.6462 11.5923C26.6986 11.118 24.7149 10.8026 22.7149 10.6492L22.3505 10.6177L22.1402 10.3175C21.0038 8.69 19.7343 7.15694 18.3444 5.73369L17.8129 5.19452L18.3444 4.65721C22.251 0.703315 25.981 -0.862308 28.3043 0.460597C30.6746 1.80759 31.146 5.66699 29.5965 11.0531L29.388 11.7757ZM23.2145 9.14286C25.0063 9.30035 26.7041 9.5653 28.2818 9.91548C29.3542 5.76148 29.08 2.68397 27.523 1.79832C25.9754 0.914535 23.0624 2.26709 20.0028 5.20935C21.1598 6.45073 22.2341 7.76252 23.2145 9.14286ZM11.397 32.9996C10.7362 33.0089 10.0847 32.8446 9.50946 32.5234C7.13733 31.1783 6.66778 27.3152 8.21728 21.9291L8.42012 21.2046L9.162 21.3899C10.9726 21.8402 12.9672 22.157 15.0933 22.3293L15.4576 22.3645L15.6699 22.661C16.8043 24.2877 18.0739 25.8237 19.4638 27.2504L19.9972 27.7877L19.4638 28.3268C16.4906 31.3414 13.6245 32.9996 11.397 32.9996ZM9.532 23.0649C8.46144 27.2189 8.73565 30.3019 10.2908 31.1876C11.8403 32.0584 14.7439 30.7151 17.8129 27.7747C16.6558 26.5331 15.5812 25.2192 14.5956 23.8412C12.8922 23.6926 11.2007 23.4333 9.532 23.0649Z" fill="#03BAF3"/>
<path d="M18.502 23.6296C17.1933 23.6296 15.8503 23.5789 14.5016 23.4756L14.1282 23.4458L13.913 23.1622C13.1524 22.1571 12.4368 21.1239 11.768 20.0651C11.1041 19.0035 10.4871 17.9178 9.91832 16.8105L9.7583 16.5006L9.91832 16.1873C10.4879 15.0808 11.1032 13.9954 11.768 12.9344C12.429 11.891 13.151 10.8475 13.913 9.83562L14.1282 9.5555L14.5016 9.52399C17.1626 9.31915 19.8375 9.31915 22.4985 9.52399L22.8681 9.55725L23.0833 9.83737C24.6069 11.8485 25.945 13.9731 27.0837 16.189L27.2418 16.5024L27.0837 16.8123C25.9482 19.0297 24.6099 21.1545 23.0833 23.1639L22.8681 23.4475L22.4985 23.4773C21.1536 23.5771 19.8088 23.6296 18.502 23.6296ZM15.0083 22.047C17.3609 22.2098 19.643 22.2098 21.9937 22.047C23.306 20.2808 24.4725 18.4269 25.4836 16.5006C24.4761 14.5727 23.3094 12.7185 21.9937 10.9543C19.6687 10.7898 17.3333 10.7898 15.0083 10.9543C13.6915 12.7178 12.5248 14.5721 11.5185 16.5006C12.5317 18.4258 13.6981 20.2796 15.0083 22.047Z" fill="#03BAF3"/>
</g>
<defs>
<clipPath id="clip0_512_326">
<rect width="37" height="33" fill="white"/>
</clipPath>
</defs>
</svg>
