<svg width="39" height="25" viewBox="0 0 39 25" fill="none" xmlns="http://www.w3.org/2000/svg">
<path d="M32.0026 7.79203L32.0277 7.80122L32.0535 7.8077C33.4678 8.16192 34.9512 8.02145 36.2827 7.4089C36.8765 7.13577 37.4252 6.77565 37.9149 6.34285C37.3529 7.76234 36.4664 9.02023 35.3254 9.99356C33.616 11.4517 31.4604 12.1655 29.2876 12.0014L29.264 11.9996L29.2404 12.0001C27.6108 12.0315 25.9949 11.6662 24.515 10.9305C23.035 10.1947 21.7289 9.1072 20.6978 7.7482L20.6975 7.74774C19.6669 6.39266 18.3026 5.36281 16.752 4.77582L16.7239 4.76517L16.6947 4.75797C15.2861 4.41079 13.8107 4.54947 12.4827 5.15226C11.8759 5.42774 11.3149 5.79324 10.8146 6.23397C11.3754 4.79309 12.2696 3.51624 13.4246 2.53098C15.134 1.07286 17.2896 0.359045 19.4624 0.523115L19.4849 0.524814L19.5074 0.524479C21.1415 0.500213 22.7604 0.874703 24.2406 1.62088C25.721 2.36715 27.0247 3.46611 28.0502 4.83613L28.0518 4.83821C29.0789 6.19544 30.4472 7.22081 32.0026 7.79203ZM6.99736 17.208L6.97234 17.1988L6.94648 17.1923C5.53222 16.8381 4.04884 16.9785 2.71727 17.5911C2.12355 17.8642 1.57481 18.2243 1.0851 18.6571C1.64706 17.2377 2.53357 15.9798 3.6746 15.0064C5.38396 13.5483 7.53962 12.8345 9.71235 12.9986L9.73528 13.0003L9.75828 12.9999C11.3876 12.973 13.0026 13.3403 14.4822 14.0758C15.9619 14.8115 17.2689 15.8969 18.3029 17.2528C19.3335 18.6076 20.6976 19.6373 22.248 20.2242L22.2761 20.2348L22.3053 20.242C23.7139 20.5892 25.1893 20.4505 26.5173 19.8477C27.1241 19.5723 27.6851 19.2068 28.1854 18.766C27.6246 20.2069 26.7304 21.4838 25.5754 22.469C23.866 23.9271 21.7104 24.641 19.5376 24.4769L19.5151 24.4752L19.4926 24.4755C17.8585 24.4998 16.2396 24.1253 14.7594 23.3791C13.279 22.6328 11.9753 21.5339 10.9498 20.1639L10.9482 20.1618C9.92114 18.8046 8.55281 17.7792 6.99736 17.208Z" fill="#0DE2FF" stroke="#56C3CA"/>
</svg>
